<svg xmlns="http://www.w3.org/2000/svg" xmlns:xlink="http://www.w3.org/1999/xlink" width="32" height="32" viewBox="0 0 32 32" fill="none">
<rect x="8" y="9" width="16.25" height="12.5"   fill="#080B54" >
</rect>
<path d="M15.9975 29.75C15.7938 29.75 15.5788 29.7405 15.35 29.7176C15.1212 29.695 14.9051 29.6492 14.7 29.5807C11.4953 28.5673 8.9093 26.6502 6.945 23.8317C4.98067 21.0133 4 18.0099 4 14.8161L4 9.09948C4 8.26863 4.23164 7.5241 4.695 6.86861C5.1586 6.21291 5.78846 5.74291 6.5825 5.45937L14.5575 2.52388C15.0144 2.34168 15.493 2.25 15.9975 2.25C16.5019 2.25 16.9831 2.34168 17.44 2.52388L25.4175 5.45937C26.2115 5.74291 26.8389 6.21291 27.3025 6.86861C27.7659 7.5241 28 8.26863 28 9.09948L28 14.8161C28 18.0099 27.0168 21.0133 25.0525 23.8317C23.0882 26.6502 20.5047 28.5673 17.3 29.5807C17.0949 29.6492 16.8763 29.695 16.6475 29.7176C16.4186 29.7405 16.2012 29.75 15.9975 29.75ZM11.6759 15.2465C11.451 15.0193 11.1929 14.91 10.9016 14.9187L10.9016 14.9187C10.5968 14.9279 10.3271 15.0493 10.0925 15.2829C9.86281 15.5116 9.74797 15.7641 9.74797 16.0404C9.74797 16.3147 9.86287 16.5663 10.0926 16.7951L13.0368 19.7481L13.0408 19.7516C13.4483 20.1166 13.8709 20.2991 14.3083 20.2991C14.8126 20.2991 15.2334 20.1216 15.5707 19.7665L15.5755 19.7614L21.764 13.5981C21.9957 13.3674 22.1115 13.109 22.1115 12.8227C22.1115 12.5345 21.9957 12.2751 21.764 12.0444C21.5344 11.8156 21.2679 11.7013 20.9645 11.7013C20.6611 11.7013 20.3946 11.8156 20.165 12.0444L14.6793 17.5077C14.4496 17.7365 14.219 17.7378 13.9875 17.5117L11.6767 15.2473L11.6759 15.2465Z" fill-rule="evenodd"  fill="#8C9CFF" >
</path>
</svg>
