<svg xmlns="http://www.w3.org/2000/svg" xmlns:xlink="http://www.w3.org/1999/xlink" width="196" height="196" viewBox="0 0 196 196" fill="none">
<path d="M182.77 98C182.77 107.712 185.6 116.767 190.48 124.384C194.012 131.154 196 138.855 196 147C196 174.048 174.048 196 147 196C138.855 196 131.154 194.012 124.384 190.48C116.767 185.6 107.712 182.77 98 182.77C88.2882 182.77 79.2335 185.6 71.616 190.48C64.8461 194.012 57.1453 196 49 196C21.952 196 0 174.048 0 147C0 138.855 1.98825 131.154 5.52005 124.384C10.3999 116.767 13.23 107.712 13.23 98C13.23 88.2882 10.3999 79.2335 5.52005 71.616C1.98825 64.8461 0 57.1453 0 49C0 21.952 21.952 0 49 0C57.1453 0 64.8461 1.98825 71.616 5.52005C79.2335 10.3999 88.2882 13.23 98 13.23C107.712 13.23 116.767 10.3999 124.384 5.52005C131.154 1.98824 138.855 0 147 0C174.048 0 196 21.952 196 49C196 57.1453 194.012 64.8461 190.48 71.616C185.6 79.2335 182.77 88.2882 182.77 98Z"   fill="#666EFF" >
</path>
<path d="M97.99 153C97.1753 153 96.3154 152.962 95.4 152.871C94.4846 152.78 93.6203 152.597 92.8 152.323C79.9814 148.269 69.6372 140.601 61.78 129.327C53.9227 118.053 50 106.04 50 93.2644L50 70.3979C50 67.0745 50.9265 64.0964 52.78 61.4744C54.6344 58.8517 57.1539 56.9716 60.33 55.8375L92.23 44.0955C94.0577 43.3667 95.9722 43 97.99 43C100.008 43 101.932 43.3667 103.76 44.0955L135.67 55.8375C138.846 56.9716 141.355 58.8517 143.21 61.4744C145.063 64.0964 146 67.0745 146 70.3979L146 93.2644C146 106.04 142.067 118.053 134.21 129.327C126.353 140.601 116.019 148.269 103.2 152.323C102.38 152.597 101.505 152.78 100.59 152.871C99.6746 152.962 98.8048 153 97.99 153ZM80.7037 94.9861C79.8039 94.0771 78.7715 93.64 77.6066 93.6749L77.6065 93.6749C76.3872 93.7115 75.3083 94.1971 74.3699 95.1316C73.4512 96.0464 72.9919 97.0565 72.9919 98.1617C72.9919 99.259 73.4515 100.265 74.3706 101.181L86.1474 112.992L86.1631 113.007C87.7934 114.467 89.4835 115.197 91.2332 115.197C93.2503 115.197 94.9335 114.486 96.2827 113.066L96.3021 113.045L121.056 88.3924C121.983 87.4696 122.446 86.4358 122.446 85.2909C122.446 84.138 121.983 83.1003 121.056 82.1775C120.137 81.2626 119.072 80.805 117.858 80.805C116.645 80.805 115.579 81.2625 114.66 82.1774L92.7172 104.031C91.7984 104.946 90.876 104.951 89.9501 104.047L80.7068 94.989L80.7037 94.9861Z" fill-rule="evenodd"  fill="#0F1242" >
</path>
</svg>
