<svg xmlns="http://www.w3.org/2000/svg" xmlns:xlink="http://www.w3.org/1999/xlink" width="196" height="196" viewBox="0 0 196 196" fill="none">
<path d="M182.77 98C182.77 107.712 185.6 116.767 190.48 124.384C194.012 131.154 196 138.855 196 147C196 174.048 174.048 196 147 196C138.855 196 131.154 194.012 124.384 190.48C116.767 185.6 107.712 182.77 98 182.77C88.2882 182.77 79.2335 185.6 71.616 190.48C64.8461 194.012 57.1453 196 49 196C21.952 196 0 174.048 0 147C0 138.855 1.98825 131.154 5.52005 124.384C10.3999 116.767 13.23 107.712 13.23 98C13.23 88.2882 10.3999 79.2335 5.52005 71.616C1.98825 64.8461 0 57.1453 0 49C0 21.952 21.952 0 49 0C57.1453 0 64.8461 1.98825 71.616 5.52005C79.2335 10.3999 88.2882 13.23 98 13.23C107.712 13.23 116.767 10.3999 124.384 5.52005C131.154 1.98824 138.855 0 147 0C174.048 0 196 21.952 196 49C196 57.1453 194.012 64.8461 190.48 71.616C185.6 79.2335 182.77 88.2882 182.77 98Z"   fill="#F0D23C" >
</path>
<path d="M103.333 96L103.333 74.1333C103.333 72.7973 102.867 71.6636 101.933 70.732C101 69.7996 99.8524 69.3333 98.4907 69.3333C97.1297 69.3333 95.9743 69.7996 95.024 70.732C94.0747 71.6636 93.6 72.7973 93.6 74.1333L93.6 98C93.6 98.7377 93.7111 99.3956 93.9333 99.9733C94.1556 100.55 94.4889 101.048 94.9333 101.467L113.733 120.8C114.622 121.867 115.778 122.4 117.2 122.4C118.622 122.4 119.867 121.867 120.933 120.8C121.822 119.911 122.289 118.756 122.333 117.333C122.378 115.911 121.911 114.711 120.933 113.733L103.333 96ZM98.0373 153.467C90.4889 153.467 83.3217 151.999 76.536 149.064C69.7503 146.129 63.8543 142.158 58.848 137.152C53.8418 132.146 49.8711 126.25 46.936 119.464C44.0009 112.678 42.5333 105.511 42.5333 97.9627C42.5333 90.392 44.0036 83.2383 46.944 76.5013C49.8844 69.7644 53.8622 63.8857 58.8773 58.8653C63.8924 53.844 69.7884 49.8667 76.5653 46.9333C83.3423 44 90.4996 42.5333 98.0373 42.5333C105.607 42.5333 112.76 44 119.496 46.9333C126.232 49.8667 132.111 53.8444 137.133 58.8667C142.156 63.8889 146.133 69.7693 149.067 76.508C152 83.2467 153.467 90.4023 153.467 97.9747C153.467 105.547 152 112.711 149.067 119.467C146.133 126.222 142.156 132.108 137.135 137.123C132.114 142.138 126.236 146.116 119.499 149.056C112.762 151.996 105.608 153.467 98.0373 153.467Z"   fill="#4A4010" >
</path>
</svg>
