<svg xmlns="http://www.w3.org/2000/svg" xmlns:xlink="http://www.w3.org/1999/xlink" width="32" height="32" viewBox="0 0 32 32" fill="none">
<circle cx="16" cy="16" r="11.25"   fill="#594300" >
</circle>
<path d="M17.3101 15.5087L17.3101 10.1373C17.3101 9.80914 17.1955 9.53065 16.9662 9.3018C16.7369 9.07277 16.455 8.95823 16.1205 8.95823C15.7862 8.95823 15.5024 9.07277 15.269 9.3018C15.0358 9.53065 14.9192 9.80914 14.9192 10.1373L14.9192 16C14.9192 16.1812 14.9465 16.3428 15.001 16.4847C15.0556 16.6265 15.1375 16.7487 15.2467 16.8516L19.8648 21.6007C20.0831 21.8627 20.367 21.9937 20.7163 21.9937C21.0657 21.9937 21.3714 21.8627 21.6334 21.6007C21.8518 21.3823 21.9664 21.0985 21.9773 20.7491C21.9882 20.3997 21.8736 20.105 21.6334 19.8648L17.3101 15.5087ZM16.0092 29.625C14.155 29.625 12.3944 29.2645 10.7275 28.5435C9.06065 27.8225 7.61234 26.8472 6.38258 25.6174C5.15284 24.3877 4.17747 22.9393 3.45648 21.2725C2.7355 19.6056 2.375 17.845 2.375 15.9908C2.375 14.1311 2.73615 12.3739 3.45845 10.719C4.18075 9.06412 5.15786 7.62007 6.38979 6.38684C7.62171 5.15339 9.07002 4.17638 10.7347 3.45583C12.3994 2.73528 14.1576 2.375 16.0092 2.375C17.8686 2.375 19.6257 2.73528 21.2803 3.45583C22.935 4.17638 24.3791 5.15349 25.6128 6.38717C26.8465 7.62085 27.8236 9.06533 28.5442 10.7206C29.2647 12.3759 29.625 14.1337 29.625 15.9938C29.625 17.8539 29.2647 19.6137 28.5442 21.2731C27.8236 22.9326 26.8466 24.3783 25.6132 25.6102C24.3799 26.8421 22.9359 27.8193 21.281 28.5415C19.6261 29.2638 17.8689 29.625 16.0092 29.625Z"   fill="#FFD866" >
</path>
</svg>
