<svg xmlns="http://www.w3.org/2000/svg" xmlns:xlink="http://www.w3.org/1999/xlink" width="32" height="32" viewBox="0 0 32 32" fill="none">
<circle cx="16" cy="16" r="11.25"   fill="#250C63" >
</circle>
<path d="M11.258 15.9943L13.4443 13.8033C13.6554 13.5955 13.761 13.3422 13.761 13.0433C13.761 12.7444 13.6554 12.4863 13.4443 12.269C13.2332 12.0579 12.9787 11.9523 12.6807 11.9523C12.3824 11.9523 12.1269 12.0587 11.914 12.2716L9.042 15.1356C8.9151 15.2634 8.8209 15.398 8.75934 15.5393C8.69757 15.6806 8.66667 15.8333 8.66667 15.9973C8.66667 16.1613 8.69757 16.3149 8.75934 16.458C8.8209 16.6013 8.9151 16.733 9.042 16.853L11.951 19.772C12.163 19.9849 12.418 20.09 12.716 20.0873C13.0138 20.0846 13.2722 19.9777 13.4913 19.7666C13.7024 19.5555 13.808 19.2976 13.808 18.993C13.808 18.6883 13.7024 18.4321 13.4913 18.2243L11.258 15.9943ZM20.753 16L18.5197 18.2333C18.3012 18.4404 18.192 18.695 18.192 18.997C18.192 19.299 18.2994 19.5555 18.5143 19.7666C18.729 19.9777 18.9854 20.0833 19.2837 20.0833C19.5819 20.0833 19.8373 19.977 20.05 19.7643L22.967 16.857C23.0872 16.7356 23.1802 16.604 23.246 16.462C23.3116 16.3197 23.3443 16.1666 23.3443 16.0026C23.3443 15.8386 23.3117 15.6851 23.2463 15.542C23.181 15.3986 23.0886 15.2632 22.969 15.1356L20.0477 12.2253C19.9477 12.1215 19.8292 12.0427 19.6923 11.989C19.5552 11.9354 19.4182 11.9086 19.2813 11.9086C19.1444 11.9086 19.0112 11.9354 18.8817 11.989C18.7521 12.0427 18.6307 12.1231 18.5173 12.23C18.3058 12.4362 18.2 12.6911 18.2 12.9946C18.2 13.2982 18.3092 13.5555 18.5277 13.7666L20.753 16ZM6.39067 28.0233C5.73267 28.0233 5.16578 27.7855 4.69 27.31C4.21445 26.8342 3.97667 26.2673 3.97667 25.6093L3.97667 6.39065C3.97667 5.73109 4.21445 5.16298 4.69 4.68631C5.16578 4.20965 5.73267 3.97131 6.39067 3.97131L25.6093 3.97131C26.2689 3.97131 26.837 4.20965 27.3137 4.68631C27.7903 5.16298 28.0287 5.73109 28.0287 6.39065L28.0287 25.6093C28.0287 26.2673 27.7903 26.8342 27.3137 27.31C26.837 27.7855 26.2689 28.0233 25.6093 28.0233L6.39067 28.0233Z"   fill="#AD8CFF" >
</path>
</svg>
