<svg xmlns="http://www.w3.org/2000/svg" xmlns:xlink="http://www.w3.org/1999/xlink" width="196" height="196" viewBox="0 0 196 196" fill="none">
<path d="M182.77 98C182.77 107.712 185.6 116.767 190.48 124.384C194.012 131.154 196 138.855 196 147C196 174.048 174.048 196 147 196C138.855 196 131.154 194.012 124.384 190.48C116.767 185.6 107.712 182.77 98 182.77C88.2882 182.77 79.2335 185.6 71.616 190.48C64.8461 194.012 57.1453 196 49 196C21.952 196 0 174.048 0 147C0 138.855 1.98825 131.154 5.52005 124.384C10.3999 116.767 13.23 107.712 13.23 98C13.23 88.2882 10.3999 79.2335 5.52005 71.616C1.98825 64.8461 0 57.1453 0 49C0 21.952 21.952 0 49 0C57.1453 0 64.8461 1.98825 71.616 5.52005C79.2335 10.3999 88.2882 13.23 98 13.23C107.712 13.23 116.767 10.3999 124.384 5.52005C131.154 1.98824 138.855 0 147 0C174.048 0 196 21.952 196 49C196 57.1453 194.012 64.8461 190.48 71.616C185.6 79.2335 182.77 88.2882 182.77 98Z"   fill="#A98BF7" >
</path>
<path d="M79.032 97.9774L87.7773 89.2134C88.6217 88.3823 89.044 87.369 89.044 86.1734C89.044 84.9778 88.6217 83.9454 87.7773 83.076C86.9329 82.2316 85.9147 81.8094 84.7227 81.8094C83.5297 81.8094 82.5076 82.2351 81.656 83.0867L70.168 94.5427C69.6604 95.0538 69.2836 95.592 69.0373 96.1574C68.7903 96.7227 68.6667 97.3334 68.6667 97.9894C68.6667 98.6454 68.7903 99.2596 69.0373 99.832C69.2836 100.405 69.6604 100.932 70.168 101.412L81.804 113.088C82.652 113.94 83.672 114.36 84.864 114.349C86.0551 114.339 87.0889 113.911 87.9653 113.067C88.8097 112.222 89.232 111.191 89.232 109.972C89.232 108.753 88.8097 107.728 87.9653 106.897L79.032 97.9774ZM117.012 98L108.079 106.933C107.205 107.762 106.768 108.78 106.768 109.988C106.768 111.196 107.198 112.222 108.057 113.067C108.916 113.911 109.942 114.333 111.135 114.333C112.328 114.333 113.349 113.908 114.2 113.057L125.868 101.428C126.349 100.943 126.721 100.416 126.984 99.848C127.246 99.2791 127.377 98.6667 127.377 98.0107C127.377 97.3547 127.247 96.7404 126.985 96.168C126.724 95.5947 126.354 95.053 125.876 94.5427L114.191 82.9014C113.791 82.4863 113.317 82.1711 112.769 81.956C112.221 81.7418 111.673 81.6347 111.125 81.6347C110.578 81.6347 110.045 81.7418 109.527 81.956C109.008 82.1711 108.523 82.4924 108.069 82.92C107.223 83.745 106.8 84.7644 106.8 85.9787C106.8 87.193 107.237 88.2223 108.111 89.0667L117.012 98ZM59.5627 146.093C56.9307 146.093 54.6631 145.142 52.76 143.24C50.8578 141.337 49.9067 139.069 49.9067 136.437L49.9067 59.5627C49.9067 56.9245 50.8578 54.652 52.76 52.7454C54.6631 50.8387 56.9307 49.8854 59.5627 49.8854L136.437 49.8854C139.076 49.8854 141.348 50.8387 143.255 52.7454C145.161 54.652 146.115 56.9245 146.115 59.5627L146.115 136.437C146.115 139.069 145.161 141.337 143.255 143.24C141.348 145.142 139.076 146.093 136.437 146.093L59.5627 146.093Z"   fill="#23114F" >
</path>
</svg>
