<svg xmlns="http://www.w3.org/2000/svg" xmlns:xlink="http://www.w3.org/1999/xlink" width="196" height="196" viewBox="0 0 196 196" fill="none">
<path d="M182.77 98C182.77 107.712 185.6 116.767 190.48 124.384C194.012 131.154 196 138.855 196 147C196 174.048 174.048 196 147 196C138.855 196 131.154 194.012 124.384 190.48C116.767 185.6 107.712 182.77 98 182.77C88.2882 182.77 79.2335 185.6 71.616 190.48C64.8461 194.012 57.1453 196 49 196C21.952 196 0 174.048 0 147C0 138.855 1.98825 131.154 5.52005 124.384C10.3999 116.767 13.23 107.712 13.23 98C13.23 88.2882 10.3999 79.2335 5.52005 71.616C1.98825 64.8461 0 57.1453 0 49C0 21.952 21.952 0 49 0C57.1453 0 64.8461 1.98825 71.616 5.52005C79.2335 10.3999 88.2882 13.23 98 13.23C107.712 13.23 116.767 10.3999 124.384 5.52005C131.154 1.98824 138.855 0 147 0C174.048 0 196 21.952 196 49C196 57.1453 194.012 64.8461 190.48 71.616C185.6 79.2335 182.77 88.2882 182.77 98Z"   fill="#FF4747" >
</path>
<path d="M97.9853 126.4C99.7177 126.4 101.153 125.835 102.292 124.705C103.431 123.576 104 122.146 104 120.415C104 118.716 103.435 117.267 102.305 116.067C101.176 114.867 99.7463 114.267 98.0147 114.267C96.2831 114.267 94.8476 114.862 93.708 116.052C92.5693 117.243 92 118.688 92 120.385C92 122.084 92.5649 123.511 93.6947 124.667C94.8236 125.822 96.2537 126.4 97.9853 126.4ZM98 108.133C99.4133 108.133 100.544 107.709 101.393 106.86C102.242 106.011 102.667 104.88 102.667 103.467L102.667 73.316C102.667 72.035 102.242 70.94 101.393 70.0306C100.544 69.1213 99.4133 68.6666 98 68.6666C96.5867 68.6666 95.4667 69.112 94.64 70.0026C93.8133 70.8933 93.4 71.9884 93.4 73.288L93.4 103.415C93.4 104.738 93.8133 105.856 94.64 106.767C95.4667 107.678 96.5867 108.133 98 108.133ZM82 148.733C80.3467 148.733 78.752 148.413 77.216 147.773C75.68 147.134 74.3191 146.232 73.1333 145.067L50.9333 122.867C49.768 121.681 48.8658 120.32 48.2267 118.784C47.5867 117.248 47.2667 115.653 47.2667 114L47.2667 82C47.2667 80.3466 47.5867 78.752 48.2267 77.216C48.8658 75.68 49.768 74.319 50.9333 73.1333L73.1333 50.9333C74.2809 49.776 75.6289 48.8533 77.1773 48.1653C78.7257 47.4773 80.3333 47.1333 82 47.1333L114 47.1333C115.667 47.1333 117.274 47.4773 118.823 48.1653C120.371 48.8533 121.719 49.776 122.867 50.9333L145.067 73.1333C146.224 74.2809 147.147 75.6289 147.835 77.1773C148.523 78.7257 148.867 80.3333 148.867 82L148.867 114C148.867 115.667 148.523 117.274 147.835 118.823C147.147 120.371 146.224 121.719 145.067 122.867L122.867 145.067C121.681 146.232 120.32 147.134 118.784 147.773C117.248 148.413 115.653 148.733 114 148.733L82 148.733Z"   fill="#2E0606" >
</path>
</svg>
