<svg xmlns="http://www.w3.org/2000/svg" xmlns:xlink="http://www.w3.org/1999/xlink" width="32" height="32" viewBox="0 0 32 32" fill="none">
<circle cx="16" cy="16" r="11.25"   fill="#631010" >
</circle>
<path d="M15.9963 23.1C16.4294 23.1 16.7883 22.9588 17.073 22.6763C17.3577 22.3941 17.5 22.0366 17.5 21.6037C17.5 21.179 17.3587 20.8167 17.0763 20.5167C16.7941 20.2167 16.4366 20.0667 16.0037 20.0667C15.5708 20.0667 15.2119 20.2154 14.927 20.513C14.6423 20.8108 14.5 21.1719 14.5 21.5963C14.5 22.021 14.6412 22.3778 14.9236 22.6667C15.2059 22.9556 15.5634 23.1 15.9963 23.1ZM16 18.5333C16.3533 18.5333 16.6361 18.4272 16.8483 18.215C17.0606 18.0028 17.1666 17.72 17.1666 17.3667L17.1666 9.82899C17.1666 9.50876 17.0606 9.23499 16.8483 9.00766C16.6361 8.78032 16.3533 8.66666 16 8.66666C15.6467 8.66666 15.3667 8.77799 15.16 9.00066C14.9533 9.22332 14.85 9.49709 14.85 9.82199L14.85 17.3537C14.85 17.6846 14.9533 17.9639 15.16 18.1917C15.3667 18.4194 15.6467 18.5333 16 18.5333ZM12 28.6833C11.5866 28.6833 11.188 28.6033 10.804 28.4433C10.42 28.2836 10.0798 28.058 9.78332 27.7667L4.23332 22.2167C3.94198 21.9202 3.71643 21.58 3.55665 21.196C3.39665 20.812 3.31665 20.4133 3.31665 20L3.31665 12C3.31665 11.5867 3.39665 11.188 3.55665 10.804C3.71643 10.42 3.94198 10.0798 4.23332 9.78332L9.78332 4.23333C10.0702 3.94399 10.4072 3.71333 10.7943 3.54132C11.1814 3.36933 11.5833 3.28333 12 3.28333L20 3.28333C20.4167 3.28333 20.8186 3.36933 21.2057 3.54132C21.5928 3.71333 21.9298 3.94399 22.2167 4.23333L27.7666 9.78332C28.056 10.0702 28.2866 10.4072 28.4587 10.7943C28.6306 11.1814 28.7167 11.5833 28.7167 12L28.7167 20C28.7167 20.4167 28.6306 20.8186 28.4587 21.2057C28.2866 21.5928 28.056 21.9298 27.7666 22.2167L22.2167 27.7667C21.9202 28.058 21.58 28.2836 21.196 28.4433C20.812 28.6033 20.4133 28.6833 20 28.6833L12 28.6833Z"   fill="#FF6161" >
</path>
</svg>
