<svg xmlns="http://www.w3.org/2000/svg" xmlns:xlink="http://www.w3.org/1999/xlink" width="196" height="196" viewBox="0 0 196 196" fill="none">
<path d="M182.77 98C182.77 107.712 185.6 116.767 190.48 124.384C194.012 131.154 196 138.855 196 147C196 174.048 174.048 196 147 196C138.855 196 131.154 194.012 124.384 190.48C116.767 185.6 107.712 182.77 98 182.77C88.2882 182.77 79.2335 185.6 71.616 190.48C64.8461 194.012 57.1453 196 49 196C21.952 196 0 174.048 0 147C0 138.855 1.98825 131.154 5.52005 124.384C10.3999 116.767 13.23 107.712 13.23 98C13.23 88.2882 10.3999 79.2335 5.52005 71.616C1.98825 64.8461 0 57.1453 0 49C0 21.952 21.952 0 49 0C57.1453 0 64.8461 1.98825 71.616 5.52005C79.2335 10.3999 88.2882 13.23 98 13.23C107.712 13.23 116.767 10.3999 124.384 5.52005C131.154 1.98824 138.855 0 147 0C174.048 0 196 21.952 196 49C196 57.1453 194.012 64.8461 190.48 71.616C185.6 79.2335 182.77 88.2882 182.77 98Z"   fill="#3EF07F" >
</path>
<path d="M86.1333 43.1C84.7333 43.1 83.5613 42.6174 82.6173 41.652C81.6724 40.6867 81.2 39.5311 81.2 38.1854C81.2 36.8396 81.6724 35.7 82.6173 34.7667C83.5613 33.8334 84.7333 33.3667 86.1333 33.3667L110 33.3667C111.314 33.3667 112.442 33.8414 113.385 34.7907C114.328 35.7391 114.8 36.8863 114.8 38.232C114.8 39.5778 114.328 40.7258 113.385 41.676C112.442 42.6254 111.314 43.1 110 43.1L86.1333 43.1ZM98.0213 104.7C99.3404 104.7 100.489 104.228 101.467 103.283C102.444 102.339 102.933 101.167 102.933 99.7667L102.933 77.2334C102.933 75.9196 102.447 74.7911 101.473 73.848C100.5 72.905 99.3342 72.4334 97.976 72.4334C96.6569 72.4334 95.5311 72.905 94.5986 73.848C93.6662 74.7911 93.2 75.9196 93.2 77.2334L93.2 99.7667C93.2 101.167 93.6737 102.339 94.6213 103.283C95.5689 104.228 96.7022 104.7 98.0213 104.7ZM98 150.033C91.1263 150.033 84.6836 148.724 78.672 146.104C72.6596 143.484 67.3987 139.92 62.8893 135.411C58.38 130.901 54.8156 125.64 52.196 119.628C49.5764 113.616 48.2667 107.174 48.2667 100.3C48.2667 93.4263 49.5764 86.9836 52.196 80.972C54.8156 74.9596 58.38 69.6987 62.8893 65.1894C67.3987 60.68 72.6596 57.1156 78.672 54.496C84.6836 51.8764 91.1263 50.5667 98 50.5667C104.044 50.5667 109.689 51.5223 114.933 53.4334C120.178 55.3444 124.889 58.0778 129.067 61.6334L133.2 57.5C134.178 56.5223 135.333 56.0334 136.667 56.0334C138 56.0334 139.156 56.5223 140.133 57.5C141.111 58.4778 141.6 59.6334 141.6 60.9667C141.6 62.3 141.111 63.4556 140.133 64.4334L136 68.5667C139.378 72.389 142.178 76.8556 144.4 81.9667C146.622 87.0778 147.733 93.1889 147.733 100.3C147.733 107.174 146.424 113.616 143.804 119.628C141.184 125.64 137.62 130.901 133.111 135.411C128.601 139.92 123.34 143.484 117.328 146.104C111.316 148.724 104.874 150.033 98 150.033Z"   fill="#0A4D22" >
</path>
</svg>
