<svg xmlns="http://www.w3.org/2000/svg" xmlns:xlink="http://www.w3.org/1999/xlink" width="32" height="32" viewBox="0 0 32 32" fill="none">
<circle cx="16" cy="16.125" r="11.25"   fill="#2A5202" >
</circle>
<path d="M12.9578 2.62786C12.5989 2.62786 12.2984 2.50374 12.0564 2.25551C11.8141 2.00729 11.693 1.71014 11.693 1.36409C11.693 1.01803 11.8141 0.725 12.0564 0.485C12.2984 0.245 12.5989 0.125 12.9578 0.125L19.0764 0.125C19.4132 0.125 19.7025 0.247057 19.9443 0.491171C20.1861 0.735056 20.307 1.03003 20.307 1.37609C20.307 1.72214 20.1861 2.01735 19.9443 2.26169C19.7025 2.5058 19.4132 2.62786 19.0764 2.62786L12.9578 2.62786ZM16.0055 18.4679C16.3436 18.4679 16.6381 18.3464 16.8887 18.1034C17.1394 17.8607 17.2647 17.5593 17.2647 17.1993L17.2647 11.405C17.2647 11.0672 17.14 10.777 16.8904 10.5345C16.6409 10.292 16.3421 10.1707 15.9938 10.1707C15.6557 10.1707 15.367 10.292 15.128 10.5345C14.889 10.777 14.7694 11.0672 14.7694 11.405L14.7694 17.1993C14.7694 17.5593 14.8909 17.8607 15.1338 18.1034C15.3768 18.3464 15.6673 18.4679 16.0055 18.4679ZM16 30.125C14.2378 30.125 12.5861 29.7882 11.0449 29.1146C9.50355 28.441 8.15482 27.5244 6.99877 26.3649C5.84273 25.2053 4.92892 23.8525 4.25735 22.3065C3.58578 20.7606 3.25 19.104 3.25 17.3364C3.25 15.5689 3.58578 13.9122 4.25735 12.3664C4.92892 10.8203 5.84273 9.46751 6.99877 8.30797C8.15482 7.14843 9.50355 6.23187 11.0449 5.55826C12.5861 4.88465 14.2378 4.54786 16 4.54786C17.5496 4.54786 18.9967 4.79358 20.3412 5.285C21.6856 5.77642 22.8934 6.47927 23.9645 7.39357L25.0241 6.33071C25.2748 6.0793 25.571 5.95357 25.9129 5.95357C26.2547 5.95357 26.5509 6.0793 26.8016 6.33071C27.0523 6.58213 27.1776 6.87929 27.1776 7.22214C27.1776 7.565 27.0523 7.86215 26.8016 8.11357L25.742 9.17643C26.6079 10.1593 27.3257 11.3079 27.8954 12.6221C28.4652 13.9364 28.75 15.5079 28.75 17.3364C28.75 19.104 28.4142 20.7606 27.7426 22.3065C27.0711 23.8525 26.1573 25.2053 25.0012 26.3649C23.8452 27.5244 22.4964 28.441 20.9551 29.1146C19.4139 29.7882 17.7622 30.125 16 30.125Z"   fill="#A9DC76" >
</path>
</svg>
